Complete name : C:\Users\root\Desktop\The.Woman.in.Black.2012.SCR.CROPPED.ANALOG\T.W.I.B.SCR.ANALOG.avi
Format : AVI
Format/Info : Audio Video Interleave
File size : 1.28 GiB
Duration : 1h 28mn
Overall bit rate : 2 074 Kbps
Movie name : T.W.I.B.SCR.ANALOG
Writing application : VirtualDub build 32842/releaseLavf52.31.0
Copyright : ANALOG

Video
ID : 0
Format : MPEG-4 Visual
Format profile : Advanced Simple@L5
Format settings, BVOP : 1
Format settings, QPel : Yes
Format settings, GMC : No warppoints
Format settings, Matrix : Default (H.263)
Muxing mode : Packed bitstream
Codec ID : XVID
Codec ID/Hint : XviD
Duration : 1h 28mn
Bit rate : 1 933 Kbps
Width : 720 pixels
Height : 288 pixels
Display aspect ratio : 2.500
Frame rate : 25.000 fps
Color space : YUV
Chroma subsampling : 4:2:0
Bit depth : 8 bits
Scan type : Progressive
Compression mode : Lossy
Bits/(Pixel*Frame) : 0.373
Stream size : 1.19 GiB (93%)
Writing library : XviD 64

Audio
ID : 1
Format : MPEG Audio
Format version : Version 1
Format profile : Layer 3
Mode : Joint stereo
Mode extension : MS Stereo
Codec ID : 55
Codec ID/Hint : MP3
Duration : 1h 28mn
Bit rate mode : Constant
Bit rate : 128 Kbps
Channel(s) : 2 channels
Sampling rate : 48.0 KHz
Compression mode : Lossy
Stream size : 80.8 MiB (6%)
Alignment : Aligned on interleaves
Interleave, duration : 24 ms (0.60 video frame)
Interleave, preload duration : 504 ms
Language : English
Sample : Yes
source : unmarked p2p screener(avi) THANX

croped and filterd the video and used the mp3 allready on the video as there wasent enything wrong with it....not going to bore you with all the filters added so enjoy!!
As humans, we perceive the world in analog. Everything we see and hear is a continuous transmission of information to our senses.
analog.p.2.p@hushmail.com
GREATINGS TO ALL THE P2P PLACES I LURK AT!!
 
http://www.aedes.us/e/huxVS.png 
http://www.aedes.us/e/qOAPa.png 
http://www.aedes.us/e/UKcN8.png 
http://www.aedes.us/e/idsLV.png